<svg width="30" height="30" viewBox="0 0 30 30" fill="none" xmlns="http://www.w3.org/2000/svg">
<path d="M2.72727 0C1.23545 0 0 1.23545 0 2.72727V27.2727C0 28.7645 1.23545 30 2.72727 30H27.2727C28.7645 30 30 28.7645 30 27.2727V2.72727C30 1.23545 28.7645 0 27.2727 0H2.72727ZM2.72727 2.72727H27.2727V27.2727H20.1982V18.0682H23.7355L24.2468 13.9773H20.1995V11.3345C20.1995 10.1427 20.4914 9.33273 22.2014 9.33273H24.4173V5.625C24.0395 5.57727 22.7291 5.49682 21.2223 5.49682C18.0791 5.49682 15.9382 7.38818 15.9382 10.9091V13.9773H12.3586V18.0682H15.9368V27.2727H2.72727V2.72727Z" fill="white"/>
</svg>
