<svg width="33" height="29" viewBox="0 0 33 29" fill="none" xmlns="http://www.w3.org/2000/svg">
<path d="M32.3106 4.47812C32.1826 4.16968 31.9659 3.90615 31.6881 3.72091C31.4102 3.53566 31.0836 3.43703 30.7497 3.43749H26.784C25.932 2.10594 24.6714 1.08637 23.1911 0.531556C21.7108 -0.0232563 20.0906 -0.0834286 18.5732 0.360057C17.0559 0.803542 15.7231 1.7268 14.7746 2.99148C13.8261 4.25616 13.313 5.79416 13.3122 7.37499V7.48749C8.06685 5.87031 3.86217 1.72187 3.81998 1.67968C3.60169 1.46151 3.32775 1.30738 3.02795 1.23406C2.72816 1.16074 2.41401 1.17104 2.11966 1.26384C1.82532 1.35664 1.56206 1.52838 1.35852 1.76038C1.15499 1.99238 1.01898 2.27576 0.965292 2.57968C-0.300333 9.55468 1.80904 14.2516 3.79185 16.9516C4.66949 18.1462 5.71096 19.2114 6.8856 20.1156C4.8606 22.1406 2.06217 23.2234 2.03404 23.2375C1.7954 23.3234 1.57985 23.4632 1.40421 23.6462C1.22857 23.8292 1.09761 24.0502 1.02154 24.2922C0.944468 24.5354 0.92215 24.7926 0.956187 25.0455C0.990224 25.2983 1.07977 25.5405 1.21842 25.7547C1.4856 26.1625 3.10279 28.1875 8.24967 28.1875C18.3887 28.1875 26.8825 20.4391 27.8387 10.4125L31.945 6.32031C32.1784 6.08203 32.3373 5.78087 32.4023 5.45369C32.4672 5.1265 32.4353 4.78748 32.3106 4.47812ZM25.0262 8.47187C24.7282 8.75548 24.5517 9.14364 24.534 9.55468C23.9856 18.1047 16.8278 24.8125 8.24967 24.8125C7.66182 24.8161 7.07444 24.7785 6.49185 24.7C7.95435 23.7578 9.61373 22.4359 10.7809 20.6922C10.9138 20.4915 11.0025 20.2648 11.0413 20.0273C11.0801 19.7897 11.068 19.5466 11.0059 19.3141C10.9457 19.0838 10.8367 18.8692 10.6863 18.6848C10.5358 18.5004 10.3475 18.3505 10.134 18.2453C9.85279 18.0906 3.72154 14.8422 3.9606 6.23593C6.37935 8.07812 10.2887 10.5531 14.7184 11.2844C14.96 11.3252 15.2076 11.3129 15.444 11.2484C15.6804 11.1839 15.8999 11.0687 16.0872 10.9108C16.2746 10.7529 16.4253 10.5561 16.5289 10.334C16.6325 10.112 16.6865 9.87002 16.6872 9.62499V7.37499C16.6983 6.3244 17.1244 5.32084 17.8726 4.5832C18.6208 3.84557 19.6303 3.43372 20.6809 3.43749C21.4384 3.44733 22.1769 3.67544 22.808 4.09448C23.439 4.51352 23.9358 5.1057 24.2387 5.79999C24.3686 6.10206 24.5845 6.35918 24.8597 6.53925C25.1348 6.71932 25.4568 6.81435 25.7856 6.81249H26.6715L25.0262 8.47187Z" fill="white"/>
</svg>
